<?xml version="1.0" encoding="UTF-8"?>
<svg xmlns="http://www.w3.org/2000/svg" version="1.1" viewBox="0 0 802.3 251.2">
  <defs>
    <style>
      .cls-1 {
        fill: #EBD9BC;
      }
    </style>
  </defs>
  <!-- Generator: Adobe Illustrator 28.6.0, SVG Export Plug-In . SVG Version: 1.2.0 Build 709)  -->
  <g>
    <g id="Layer_1">
      <g>
        <path class="cls-1" d="M205.5,126.3h15c0-23.9-20.2-43.2-44.4-41.6-22.1,1.4-39,20.3-39,42.4v40.7h15v-40.9c0-14,10.6-26.1,24.6-27.2,15.6-1.2,28.7,11.2,28.7,26.6Z"/>
        <path class="cls-1" d="M232,84.6v15c15.7,0,28.3,13.7,26.5,29.7-1.4,12.2-11.2,22.1-23.5,23.5-16.1,1.8-29.7-10.8-29.7-26.5h-15c0,23,18.7,41.7,41.7,41.7s41.7-18.7,41.7-41.7-18.7-41.7-41.7-41.7Z"/>
      </g>
    </g>
  </g>
</svg>